<svg width="120" height="118" viewBox="0 0 120 118" fill="none" xmlns="http://www.w3.org/2000/svg">
<g clip-path="url(#clip0_2965_6265)">
<rect x="-0.570464" y="59.1289" width="85.8398" height="85.8398" rx="10.0988" transform="rotate(-45 -0.570464 59.1289)" fill="url(#paint0_linear_2965_6265)" stroke="white" stroke-width="5.0494"/>
<path d="M63.5595 37.9205C63.5595 35.6798 65.376 33.8633 67.6168 33.8633C69.8575 33.8633 71.674 35.6798 71.674 37.9205L71.674 51.7638C71.674 54.0045 69.8575 55.821 67.6168 55.821C65.376 55.821 63.5595 54.0045 63.5595 51.7638L63.5595 37.9205ZM49.7226 37.9659C49.7226 35.7001 51.5594 33.8633 53.8252 33.8633C56.091 33.8633 57.9279 35.7001 57.9279 37.9659L57.9279 51.7183C57.9279 53.9842 56.091 55.821 53.8252 55.821C51.5594 55.821 49.7226 53.9842 49.7226 51.7184L49.7226 37.9659Z" fill="white"/>
<path d="M73.5512 80.9989C71.452 80.9989 69.6353 80.6747 68.1012 80.0264C66.5873 79.3924 65.3459 78.5423 64.377 77.4762C63.4278 76.4457 62.711 75.3184 62.2268 74.0943C62.2087 74.0486 62.1646 74.0183 62.1154 74.0183C62.0575 74.0183 62.0081 74.0601 61.9976 74.117C61.5429 76.5905 60.4689 78.5026 58.7756 79.8535C57.0801 81.2366 54.6679 81.9282 51.5392 81.9282C49.117 81.9282 46.8966 81.4672 44.8781 80.5451C42.8798 79.6229 41.275 78.1894 40.0639 76.2443C38.873 74.2992 38.2775 71.7994 38.2775 68.7449C38.2775 66.699 38.4895 64.9556 38.9134 63.5149C39.1245 62.7971 39.3757 62.0901 39.667 61.3939C40.2153 60.0835 41.5516 59.3221 42.9721 59.3221L45.8237 59.3221C47.8159 59.3221 49.0252 61.6482 48.3903 63.5365C47.9261 64.9917 47.6939 66.3172 47.6939 67.5131C47.6939 69.5878 48.1077 70.9998 48.9353 71.749C49.7629 72.5126 50.8731 72.8944 52.2659 72.8944C53.2752 72.8944 54.133 72.7143 54.8395 72.3541C55.546 71.9939 56.091 71.324 56.4745 70.3442C56.858 69.3789 57.0498 67.9885 57.0498 66.1731C57.0498 65.0989 57.9206 64.228 58.9949 64.228L64.054 64.228C65.1521 64.228 66.0423 65.1182 66.0423 66.2163C66.0423 67.83 66.2442 69.1051 66.6479 70.0417C67.0516 70.9926 67.5966 71.677 68.2829 72.0948C68.9894 72.5126 69.7968 72.7215 70.7051 72.7215C71.8759 72.7215 72.7438 72.3974 73.309 71.749C73.8742 71.1006 74.1568 70.2434 74.1568 69.1772C74.1568 68.2263 73.9751 67.333 73.6118 66.4973C73.2485 65.6616 72.8448 64.934 72.4007 64.3145C71.8884 63.5998 72.133 62.5451 72.9368 62.1887L76.5942 60.567C78.2198 59.8461 80.162 60.1996 81.171 61.6638C81.6486 62.3569 82.086 63.0891 82.4832 63.8606C83.3512 65.5608 83.7852 67.7796 83.7852 70.5171C83.7852 73.7733 82.8768 76.3307 81.0601 78.1894C79.2435 80.0624 76.7405 80.9989 73.5512 80.9989Z" fill="white"/>
</g>
<defs>
<linearGradient id="paint0_linear_2965_6265" x1="43.3952" y1="59.1289" x2="43.3952" y2="139.919" gradientUnits="userSpaceOnUse">
<stop stop-color="#173756"/>
<stop offset="1" stop-color="#172533"/>
</linearGradient>
<clipPath id="clip0_2965_6265">
<rect width="120" height="118" fill="white"/>
</clipPath>
</defs>
</svg>
